<svg xmlns="http://www.w3.org/2000/svg" width="16.86" height="13.617" viewBox="0 0 16.86 13.617">
    <path data-name="패스 4" d="M292.477 2743.448s.13 6.744 7.026 5.759c.01 0 .177-.017.347-.041" transform="translate(-291.813 -2740.327)" style="stroke-linecap:round;fill:none;stroke:#4e4e4e;stroke-width:1.3px"/>
    <path data-name="패스 5" d="M299.843 2749.186s.358-5.626-7.366-5.407" transform="translate(-291.809 -2740.652)" style="stroke-linecap:round;fill:none;stroke:#4e4e4e;stroke-width:1.3px"/>
    <path data-name="패스 6" d="M305.477 2747.589s-.8-7.982 7.621-8.3" transform="translate(-297.111 -2738.61)" style="stroke-linecap:round;fill:none;stroke:#4e4e4e;stroke-width:1.3px"/>
    <path data-name="패스 7" d="M305.893 2747.919s.067-.007.387-.06a6.885 6.885 0 0 0 5.831-1.865c1.2-1.172 2.072-3.271 1.941-6.369" transform="translate(-297.857 -2738.947)" style="stroke-linecap:round;fill:none;stroke:#4e4e4e;stroke-width:1.3px"/>
    <path data-name="패스 8" d="M305.893 2757.7a7.9 7.9 0 0 0 .231-4.349" transform="translate(-297.857 -2744.342)" style="fill:none;stroke:#4e4e4e;stroke-width:1.3px"/>
</svg>
